<?xml version="1.0" encoding="UTF-8"?>
<svg id="Layer_1" data-name="Layer 1" xmlns="http://www.w3.org/2000/svg" viewBox="0 0 543.6 150">
  <path d="M0,147.95V2.05h95.49v22.75H26.02h2.05v38.11h61.89v21.31H26.02h2.05v63.73H0Z" style="fill: #fefff7;"/>
  <path d="M102.86,101.03h27.25c1.85,19.26,9.02,28.07,27.26,28.07s25.41-9.42,25.41-22.95c0-10.25-4.51-16.8-22.34-19.88l-16.19-2.67c-27.46-4.51-38.12-15.16-38.12-38.73C106.13,18.65,122.73,0,156.75,0s50.61,18.44,50.61,46.93h-26.64c-1.64-17.21-9.02-26.02-24.59-26.02s-22.13,9.02-22.13,22.34c0,10.24,3.69,15.37,19.06,17.83l16.19,2.66c26.64,4.51,41.39,15.78,41.39,40.78,0,27.26-17.62,45.49-53.89,45.49s-53.89-17.83-53.89-48.97Z" style="fill: #fefff7;"/>
  <path d="M243.42,147.95V24.8h-38.12V2.05h104.3v22.75h-38.32v123.16h-27.87Z" style="fill: #fefff7;"/>
  <path d="M364.51,147.95L317.79,2.05h29.3l34.02,111.89L415.13,2.05h29.51l-46.93,145.9h-33.2Z" style="fill: #fefff7;"/>
  <path d="M455.49,147.95V2.05h28.07v123.16h60.04v22.75h-88.12Z" style="fill: #fefff7;"/>
</svg>